<?xml version="1.0" standalone="no"?>
<!DOCTYPE svg PUBLIC "-//W3C//DTD SVG 20010904//EN"
 "http://www.w3.org/TR/2001/REC-SVG-20010904/DTD/svg10.dtd">
<svg version="1.0" xmlns="http://www.w3.org/2000/svg"
 width="200.000000pt" height="200.000000pt" viewBox="0 0 200.000000 200.000000"
 preserveAspectRatio="xMidYMid meet">
<metadata>
Created by potrace 1.11, written by Peter Selinger 2001-2013
</metadata>
<g transform="translate(0.000000,200.000000) scale(0.100000,-0.100000)"
fill="#000000" stroke="none">
<path d="M760 1879 c-25 -4 -65 -9 -90 -13 -60 -8 -136 -47 -188 -96 -53 -51
-69 -76 -76 -120 -3 -19 -17 -64 -31 -99 -28 -69 -32 -99 -22 -174 9 -65 -4
-90 -41 -77 l-27 10 24 -20 c22 -19 22 -22 8 -43 -8 -12 -34 -42 -56 -65 -85
-90 -85 -103 1 -142 29 -13 54 -25 56 -26 8 -5 -20 -83 -30 -86 -21 -7 19 -58
45 -58 12 0 18 -4 12 -8 -34 -24 -36 -40 -11 -67 22 -23 24 -33 20 -89 -3 -53
0 -66 16 -81 28 -25 97 -30 171 -12 35 9 92 18 127 21 l63 4 38 -51 c95 -126
156 -278 160 -395 1 -37 3 -68 5 -69 2 -3 85 55 96 67 3 3 92 70 197 149 l193
143 -72 78 c-107 118 -148 185 -168 273 -7 33 -5 41 12 55 12 10 38 32 58 49
57 50 80 39 52 -27 -52 -124 -1 -249 136 -334 44 -28 56 -22 21 10 -22 20 -49
66 -49 83 0 6 19 -3 43 -19 68 -45 124 -64 196 -64 71 1 169 33 124 41 -42 8
-60 50 -66 153 -6 116 -28 174 -93 236 -26 24 -52 44 -58 45 -6 0 -20 2 -31 4
-11 2 -39 -1 -61 -6 -31 -8 -48 -8 -64 1 -26 14 -24 26 16 120 24 55 28 81 30
170 3 116 -15 188 -71 285 -39 67 -140 166 -198 193 -97 46 -293 70 -417 51z
m313 -132 c56 -11 138 -57 185 -104 181 -182 127 -487 -107 -600 -49 -24 -69
-27 -151 -28 -83 0 -102 3 -155 28 -78 36 -166 128 -193 200 -38 101 -33 217
14 308 47 94 167 183 260 195 21 3 39 6 41 8 4 4 72 -1 106 -7z"/>
<path d="M1023 1508 c-5 -7 -26 -60 -46 -118 -19 -58 -39 -113 -43 -123 -6
-15 -3 -18 17 -15 20 3 29 20 66 127 23 68 40 128 37 132 -7 13 -20 11 -31 -3z"/>
<path d="M778 1462 c-85 -45 -88 -47 -88 -82 0 -34 2 -36 89 -80 l89 -46 4 32
c3 30 0 34 -50 60 -29 15 -55 31 -57 34 -2 3 20 18 50 34 53 27 67 47 56 78
-5 14 -19 10 -93 -30z"/>
<path d="M1109 1503 c-8 -50 -3 -58 49 -87 28 -17 52 -33 52 -36 0 -3 -24 -17
-53 -33 -42 -22 -53 -32 -52 -51 0 -14 3 -27 6 -31 12 -12 179 78 180 97 1 10
2 25 3 34 1 16 -183 123 -185 107z"/>
</g>
</svg>
